<?xml version="1.0" encoding="UTF-8" standalone="no"?>
<svg
   xmlns:dc="http://purl.org/dc/elements/1.1/"
   xmlns:cc="http://creativecommons.org/ns#"
   xmlns:rdf="http://www.w3.org/1999/02/22-rdf-syntax-ns#"
   xmlns:svg="http://www.w3.org/2000/svg"
   xmlns="http://www.w3.org/2000/svg"
   version="1.1"
   id="svg4750"
   viewBox="0 0 48 48"
   height="48"
   width="48">
  <defs
     id="defs4752" />
  <metadata
     id="metadata4755">
    <rdf:RDF>
      <cc:Work
         rdf:about="">
        <dc:format>image/svg+xml</dc:format>
        <dc:type
           rdf:resource="http://purl.org/dc/dcmitype/StillImage" />
        <dc:title></dc:title>
      </cc:Work>
    </rdf:RDF>
  </metadata>
  <g
     transform="translate(0,-1004.3622)"
     id="layer1">
    <path
       id="path7822"
       transform="translate(0,1004.3622)"
       d="M 24 8 A 16 16 0 0 0 8 24 A 16 16 0 0 0 24 40 A 16 16 0 0 0 40 24 A 16 16 0 0 0 24 8 z M 21.244141 15.044922 L 21.917969 15.044922 L 21.917969 16.328125 L 21.154297 16.328125 C 20.164297 16.328125 19.466875 16.238594 18.859375 16.621094 C 17.981875 17.161094 17.958984 18.240391 17.958984 18.712891 C 17.958984 19.252891 18.025391 19.747109 18.025391 20.287109 C 18.025391 20.827109 17.981953 21.480391 17.689453 22.087891 C 17.351953 22.762891 16.765859 23.324687 16.068359 23.617188 C 16.923359 23.909688 17.980469 24.765469 17.980469 27.105469 C 17.980469 27.802969 17.890625 28.411094 17.890625 28.996094 C 17.890625 29.761094 18.025938 30.7725 18.835938 31.3125 C 19.443437 31.74 20.141953 31.695313 21.064453 31.695312 L 21.896484 31.695312 L 21.896484 32.955078 L 21.085938 32.955078 C 19.690938 32.955078 18.543672 33.02375 17.576172 32.28125 C 16.383672 31.35875 16.316406 29.806094 16.316406 28.996094 C 16.316406 28.118594 16.40625 27.465078 16.40625 26.767578 C 16.40625 25.800078 16.270313 25.124766 15.820312 24.697266 C 15.347812 24.247266 14.763359 24.248047 14.380859 24.248047 L 13.931641 24.248047 L 13.931641 22.988281 L 14.359375 22.988281 C 14.764375 22.988281 15.393672 22.988203 15.888672 22.470703 C 16.406172 21.930703 16.474609 21.098594 16.474609 20.558594 C 16.474609 20.018594 16.40625 19.523438 16.40625 18.960938 C 16.40625 18.105937 16.517813 16.845312 17.507812 15.945312 C 18.587812 14.955312 20.029141 15.044922 21.244141 15.044922 z M 26.058594 15.044922 L 26.755859 15.044922 C 27.970859 15.044922 29.412187 14.955312 30.492188 15.945312 C 31.482187 16.845312 31.59375 18.105937 31.59375 18.960938 C 31.59375 19.523438 31.525391 20.018594 31.525391 20.558594 C 31.525391 21.098594 31.593828 21.930703 32.111328 22.470703 C 32.606328 22.988203 33.214141 22.988281 33.619141 22.988281 L 34.068359 22.988281 L 34.068359 24.248047 L 33.595703 24.248047 C 33.213203 24.248047 32.652187 24.247266 32.179688 24.697266 C 31.729688 25.124766 31.570312 25.800078 31.570312 26.767578 C 31.570312 27.465078 31.662109 28.118594 31.662109 28.996094 C 31.662109 29.806094 31.616328 31.35875 30.423828 32.28125 C 29.456328 33.02325 28.285625 32.955078 26.890625 32.955078 L 26.082031 32.955078 L 26.082031 31.695312 L 26.914062 31.695312 C 27.836562 31.695312 28.556562 31.74 29.164062 31.3125 C 29.974063 30.7725 30.085938 29.761094 30.085938 28.996094 C 30.085937 28.411094 30.019531 27.802969 30.019531 27.105469 C 30.019531 24.765469 31.053203 23.909688 31.908203 23.617188 C 31.210703 23.324687 30.648047 22.762891 30.310547 22.087891 C 30.018047 21.480391 29.951172 20.827109 29.951172 20.287109 C 29.951172 19.747109 30.019531 19.252891 30.019531 18.712891 C 30.019531 18.240391 29.996641 17.161094 29.119141 16.621094 C 28.511641 16.238594 27.835703 16.328125 26.845703 16.328125 L 26.058594 16.328125 L 26.058594 15.044922 z "
       style="opacity:1;fill:#333333;fill-opacity:1;fill-rule:evenodd;stroke:none;stroke-width:0.5;stroke-linecap:square;stroke-linejoin:round;stroke-miterlimit:4;stroke-dasharray:none;stroke-dashoffset:0;stroke-opacity:1" />
  </g>
</svg>
