<?xml version="1.0" encoding="UTF-8" standalone="no"?>
<svg
   xmlns:dc="http://purl.org/dc/elements/1.1/"
   xmlns:cc="http://creativecommons.org/ns#"
   xmlns:rdf="http://www.w3.org/1999/02/22-rdf-syntax-ns#"
   xmlns:svg="http://www.w3.org/2000/svg"
   xmlns="http://www.w3.org/2000/svg"
   version="1.1"
   id="svg4750"
   viewBox="0 0 48 48"
   height="48"
   width="48">
  <defs
     id="defs4752" />
  <metadata
     id="metadata4755">
    <rdf:RDF>
      <cc:Work
         rdf:about="">
        <dc:format>image/svg+xml</dc:format>
        <dc:type
           rdf:resource="http://purl.org/dc/dcmitype/StillImage" />
        <dc:title></dc:title>
      </cc:Work>
    </rdf:RDF>
  </metadata>
  <g
     transform="translate(0,-1004.3622)"
     id="layer1">
    <text
       id="text6667"
       y="1011.3622"
       x="14"
       style="font-style:normal;font-variant:normal;font-weight:normal;font-stretch:normal;font-size:22.50000000000000000px;line-height:125%;font-family:'Bitstream Vera Sans';-inkscape-font-specification:'Bitstream Vera Sans, Normal';text-align:start;letter-spacing:0px;word-spacing:0px;writing-mode:lr-tb;text-anchor:start;fill:#000000;fill-opacity:1;stroke:none;stroke-width:0.5;stroke-linecap:butt;stroke-linejoin:miter;stroke-opacity:1;stroke-miterlimit:4;stroke-dasharray:none"
       xml:space="preserve"><tspan
         y="1011.3622"
         x="14"
         id="tspan6669" /></text>
    <path
       id="rect7239"
       transform="translate(0,1004.3622)"
       d="M 8.7070312 12 L 22.353516 25.646484 C 22.692771 25.985784 23.338498 26.207031 24 26.207031 C 24.661502 26.207031 25.307229 25.985784 25.646484 25.646484 L 39.292969 12 L 8.7070312 12 z M 8 12.707031 L 8 35.292969 L 19.292969 24 L 8 12.707031 z M 40 12.707031 L 28.707031 24 L 40 35.292969 L 40 12.707031 z M 20 24.707031 L 8.7070312 36 L 39.292969 36 L 28 24.707031 L 26.353516 26.353516 C 25.749962 26.957116 24.867094 27.207031 24 27.207031 C 23.132906 27.207031 22.250038 26.957116 21.646484 26.353516 L 20 24.707031 z "
       style="opacity:1;fill:#333333;fill-opacity:1;fill-rule:evenodd;stroke:none;stroke-width:0.5;stroke-linecap:square;stroke-linejoin:round;stroke-miterlimit:4;stroke-dasharray:none;stroke-dashoffset:0;stroke-opacity:1" />
  </g>
</svg>
