<?xml version="1.0" encoding="UTF-8" standalone="no"?>
<svg
   xmlns:dc="http://purl.org/dc/elements/1.1/"
   xmlns:cc="http://creativecommons.org/ns#"
   xmlns:rdf="http://www.w3.org/1999/02/22-rdf-syntax-ns#"
   xmlns:svg="http://www.w3.org/2000/svg"
   xmlns="http://www.w3.org/2000/svg"
   width="64"
   height="64"
   id="svg2"
   version="1.0">
  <defs
     id="defs4" />
  <metadata
     id="metadata7">
    <rdf:RDF>
      <cc:Work
         rdf:about="">
        <dc:format>image/svg+xml</dc:format>
        <dc:type
           rdf:resource="http://purl.org/dc/dcmitype/StillImage" />
        <dc:title></dc:title>
        <dc:date></dc:date>
        <dc:creator>
          <cc:Agent>
            <dc:title>Dominic Fandrey</dc:title>
          </cc:Agent>
        </dc:creator>
        <dc:description></dc:description>
        <dc:contributor>
          <cc:Agent>
            <dc:title></dc:title>
          </cc:Agent>
        </dc:contributor>
      </cc:Work>
    </rdf:RDF>
  </metadata>
  <g
     id="layer1"
     transform="matrix(0.0441873,0,0,0.04414991,3.1313836,4.5540827)">
    <ellipse
       transform="matrix(0.70680742,0.70740601,-0.70680742,0.70740601,0,0)"
       ry="679.2157"
       rx="679.21564"
       cy="-22.776392"
       cx="901.55438"
       id="path4570"
       style="opacity:1;fill:#800000;fill-opacity:1;fill-rule:evenodd;stroke:none;stroke-width:45.28103638;stroke-linecap:round;stroke-linejoin:round;stroke-miterlimit:4;stroke-dasharray:none;stroke-dashoffset:0;stroke-opacity:1" />
    <path
       id="path4579"
       d="M 1005.3786,269.29993 H 877.35867 l 32.00498,32.03208 -384.05974,384.385 C 389.9444,506.431 398.5189,341.03086 605.31636,157.18764 l 32.00498,32.03208 V 61.091392 H 509.30143 L 541.3064,93.123475 C 288.23277,315.04027 310.39908,539.83033 445.29147,765.79721 l -302.4533,302.70949 a 678.92812,679.5031 0.00134601 0 0 30.41098,33.6274 678.92812,679.5031 0.00134601 0 0 33.13015,30.9059 L 509.30142,829.86138 C 735.07707,964.86797 959.67695,987.05309 1181.406,733.76513 l 32.0049,32.03208 V 637.66888 H 1085.391 l 32.005,32.03208 C 933.70835,876.67356 768.44812,885.25527 589.31387,749.78117 l 384.05974,-384.38499 32.00499,32.03208 z"
       style="opacity:1;fill:#ffffff;fill-opacity:1;fill-rule:evenodd;stroke:none;stroke-width:22.64051819000000165px;stroke-linecap:butt;stroke-linejoin:miter;stroke-opacity:1" />
    <ellipse
       style="opacity:1;fill:none;fill-opacity:1;fill-rule:evenodd;stroke:#ffffff;stroke-width:90.56207137;stroke-linecap:round;stroke-linejoin:round;stroke-miterlimit:4;stroke-dasharray:none;stroke-dashoffset:0;stroke-opacity:1"
       id="ellipse4596"
       cx="653.32385"
       cy="621.65283"
       rx="678.9281"
       ry="679.50311" />
  </g>
</svg>
