<?xml version="1.0" encoding="UTF-8" standalone="no"?>
<svg
   xmlns:dc="http://purl.org/dc/elements/1.1/"
   xmlns:cc="http://creativecommons.org/ns#"
   xmlns:rdf="http://www.w3.org/1999/02/22-rdf-syntax-ns#"
   xmlns:svg="http://www.w3.org/2000/svg"
   xmlns="http://www.w3.org/2000/svg"
   version="1.1"
   id="svg4750"
   viewBox="0 0 48 48"
   height="48"
   width="48">
  <defs
     id="defs4752" />
  <metadata
     id="metadata4755">
    <rdf:RDF>
      <cc:Work
         rdf:about="">
        <dc:format>image/svg+xml</dc:format>
        <dc:type
           rdf:resource="http://purl.org/dc/dcmitype/StillImage" />
        <dc:title></dc:title>
      </cc:Work>
    </rdf:RDF>
  </metadata>
  <g
     transform="translate(0,-1004.3622)"
     id="layer1">
    <path
       id="path3362"
       transform="translate(0,1004.3622)"
       d="M 24 8 A 16 16 0 0 0 8 24 A 16 16 0 0 0 24 40 A 16 16 0 0 0 40 24 A 16 16 0 0 0 24 8 z M 18 17 A 1 1 0 0 1 19 18 A 1 1 0 0 1 18 19 A 1 1 0 0 1 17 18 A 1 1 0 0 1 18 17 z M 20.949219 17.5 A 0.50005 0.50005 0 0 1 21 17.5 L 30 17.5 A 0.50005 0.50005 0 1 1 30 18.5 L 21 18.5 A 0.50005 0.50005 0 0 1 20.949219 17.5 z M 18 21 A 1 1 0 0 1 19 22 A 1 1 0 0 1 18 23 A 1 1 0 0 1 17 22 A 1 1 0 0 1 18 21 z M 20.949219 21.5 A 0.50005 0.50005 0 0 1 21 21.5 L 30 21.5 A 0.50005 0.50005 0 1 1 30 22.5 L 21 22.5 A 0.50005 0.50005 0 0 1 20.949219 21.5 z M 18 25 A 1 1 0 0 1 19 26 A 1 1 0 0 1 18 27 A 1 1 0 0 1 17 26 A 1 1 0 0 1 18 25 z M 20.949219 25.5 A 0.50005 0.50005 0 0 1 21 25.5 L 30 25.5 A 0.50005 0.50005 0 1 1 30 26.5 L 21 26.5 A 0.50005 0.50005 0 0 1 20.949219 25.5 z M 18 29 A 1 1 0 0 1 19 30 A 1 1 0 0 1 18 31 A 1 1 0 0 1 17 30 A 1 1 0 0 1 18 29 z M 20.949219 29.5 A 0.50005 0.50005 0 0 1 21 29.5 L 30 29.5 A 0.50005 0.50005 0 1 1 30 30.5 L 21 30.5 A 0.50005 0.50005 0 0 1 20.949219 29.5 z "
       style="opacity:1;fill:#333333;fill-opacity:1;fill-rule:evenodd;stroke:none;stroke-width:0.5;stroke-linecap:square;stroke-linejoin:round;stroke-miterlimit:4;stroke-dasharray:none;stroke-dashoffset:0;stroke-opacity:1" />
  </g>
</svg>
