<?xml version="1.0" encoding="UTF-8" standalone="no"?>
<svg
   xmlns:dc="http://purl.org/dc/elements/1.1/"
   xmlns:cc="http://creativecommons.org/ns#"
   xmlns:rdf="http://www.w3.org/1999/02/22-rdf-syntax-ns#"
   xmlns:svg="http://www.w3.org/2000/svg"
   xmlns="http://www.w3.org/2000/svg"
   version="1.1"
   id="svg4750"
   viewBox="0 0 48 48"
   height="48"
   width="48">
  <defs
     id="defs4752" />
  <metadata
     id="metadata4755">
    <rdf:RDF>
      <cc:Work
         rdf:about="">
        <dc:format>image/svg+xml</dc:format>
        <dc:type
           rdf:resource="http://purl.org/dc/dcmitype/StillImage" />
        <dc:title></dc:title>
      </cc:Work>
    </rdf:RDF>
  </metadata>
  <g
     transform="translate(0,-1004.3622)"
     id="layer1">
    <path
       id="path3343"
       transform="translate(0,1004.3622)"
       d="M 24 8 A 16 16 0 0 0 8 24 A 16 16 0 0 0 24 40 A 16 16 0 0 0 40 24 A 16 16 0 0 0 24 8 z M 24.142578 14.580078 C 24.677247 14.580078 25.222656 14.634274 25.779297 14.744141 C 26.343262 14.846674 26.915527 15.004397 27.494141 15.216797 L 27.494141 17.017578 C 26.886231 16.731978 26.31836 16.520059 25.791016 16.380859 C 25.270996 16.234393 24.804688 16.162109 24.394531 16.162109 C 23.684083 16.162109 23.131836 16.308563 22.736328 16.601562 C 22.34082 16.894496 22.142578 17.300313 22.142578 17.820312 C 22.142578 18.479446 22.897461 19.229932 24.40625 20.072266 C 24.596679 20.182132 24.743164 20.265619 24.845703 20.324219 C 26.391113 21.195752 27.402832 21.914582 27.878906 22.478516 C 28.362305 23.042516 28.603516 23.69386 28.603516 24.433594 C 28.603516 25.09286 28.43457 25.67874 28.097656 26.191406 C 27.760742 26.70414 27.251465 27.154835 26.570312 27.542969 C 27.024415 27.923835 27.355469 28.315883 27.560547 28.71875 C 27.772949 29.114217 27.878906 29.546825 27.878906 30.015625 C 27.878906 31.055625 27.504883 31.88278 26.757812 32.498047 C 26.010742 33.113247 25.003417 33.419922 23.736328 33.419922 C 23.20166 33.419922 22.651856 33.365726 22.087891 33.255859 C 21.523926 33.153326 20.919922 32.995603 20.275391 32.783203 L 20.275391 30.982422 C 20.912598 31.268022 21.50293 31.480007 22.044922 31.619141 C 22.586914 31.765674 23.069336 31.837891 23.494141 31.837891 C 24.241211 31.837891 24.820313 31.684553 25.230469 31.376953 C 25.647949 31.069286 25.857422 30.636678 25.857422 30.080078 C 25.857422 29.333011 25.048339 28.510242 23.429688 27.609375 L 23.154297 27.455078 C 21.586914 26.576211 20.568359 25.859401 20.099609 25.302734 C 19.630859 24.738801 19.396484 24.083004 19.396484 23.335938 C 19.396484 22.669404 19.56543 22.074687 19.902344 21.554688 C 20.246582 21.027354 20.751465 20.585496 21.417969 20.226562 C 20.98584 19.904296 20.65918 19.537153 20.439453 19.126953 C 20.227051 18.71682 20.121094 18.259306 20.121094 17.753906 C 20.121094 16.80184 20.488281 16.037651 21.220703 15.458984 C 21.953124 14.873051 22.926757 14.580078 24.142578 14.580078 z M 22.548828 20.996094 C 22.087403 21.333027 21.744629 21.664607 21.517578 21.994141 C 21.290528 22.323741 21.175781 22.657207 21.175781 22.994141 C 21.175781 23.550807 21.430176 24.07574 21.935547 24.566406 C 22.448242 25.049806 23.620117 25.784638 25.451172 26.773438 C 25.912598 26.443837 26.255371 26.114756 26.482422 25.785156 C 26.709473 25.44829 26.824219 25.112324 26.824219 24.775391 C 26.824219 24.226057 26.560547 23.701192 26.033203 23.203125 C 25.513184 22.705125 24.350587 21.970227 22.548828 20.996094 z "
       style="opacity:1;fill:#333333;fill-opacity:1;fill-rule:evenodd;stroke:none;stroke-width:0.5;stroke-linecap:square;stroke-linejoin:round;stroke-miterlimit:4;stroke-dasharray:none;stroke-dashoffset:0;stroke-opacity:1" />
  </g>
</svg>
