<?xml version="1.0" encoding="UTF-8" standalone="no"?>
<svg
   xmlns:dc="http://purl.org/dc/elements/1.1/"
   xmlns:cc="http://creativecommons.org/ns#"
   xmlns:rdf="http://www.w3.org/1999/02/22-rdf-syntax-ns#"
   xmlns:svg="http://www.w3.org/2000/svg"
   xmlns="http://www.w3.org/2000/svg"
   version="1.1"
   id="svg4750"
   viewBox="0 0 48 48"
   height="48"
   width="48">
  <defs
     id="defs4752" />
  <metadata
     id="metadata4755">
    <rdf:RDF>
      <cc:Work
         rdf:about="">
        <dc:format>image/svg+xml</dc:format>
        <dc:type
           rdf:resource="http://purl.org/dc/dcmitype/StillImage" />
        <dc:title></dc:title>
      </cc:Work>
    </rdf:RDF>
  </metadata>
  <g
     transform="translate(0,-1004.3622)"
     id="layer1">
    <path
       id="path7822"
       transform="translate(0,1004.3622)"
       d="M 24 8 A 16 16 0 0 0 8 24 A 16 16 0 0 0 24 40 A 16 16 0 0 0 40 24 A 16 16 0 0 0 24 8 z M 23.939453 13.814453 C 27.329453 13.814453 29.25 16.335 29.25 19.125 C 29.25 21.945 27.269297 23.085078 26.279297 23.955078 C 25.049301 25.065078 24.988281 25.965625 24.988281 27.015625 L 24.988281 28.244141 L 23.009766 28.244141 L 23.009766 27.015625 C 23.009766 25.665625 23.099922 24.615781 24.419922 23.175781 C 25.319922 22.185781 26.878906 20.924609 26.878906 18.974609 C 26.878906 17.204609 25.528516 15.794922 23.728516 15.794922 C 22.198516 15.794922 20.639688 16.785 19.679688 18.375 L 18.148438 16.964844 C 19.438437 14.954844 21.689453 13.814453 23.939453 13.814453 z M 24.058594 30.734375 C 25.048594 30.734375 25.830078 31.544609 25.830078 32.474609 C 25.830078 33.404609 25.048594 34.185547 24.058594 34.185547 C 23.068594 34.185547 22.289062 33.434609 22.289062 32.474609 C 22.289063 31.544609 23.068594 30.734375 24.058594 30.734375 z "
       style="opacity:1;fill:#333333;fill-opacity:1;fill-rule:evenodd;stroke:none;stroke-width:0.5;stroke-linecap:square;stroke-linejoin:round;stroke-miterlimit:4;stroke-dasharray:none;stroke-dashoffset:0;stroke-opacity:1" />
  </g>
</svg>
